<?xml version="1.0" encoding="UTF-8"?>
<svg id="Capa_2" data-name="Capa 2" xmlns="http://www.w3.org/2000/svg" viewBox="0 0 1589.69 286.95">
  <defs>
    <style>
      .cls-1 {
        fill: #111521;
        stroke-width: 0px;
      }
    </style>
  </defs>
  <g id="Logo_Completo" data-name="Logo Completo">
    <g>
      <path class="cls-1" d="m1552.88,128.01c16.25.72,24.45,4.75,24.45,11.94,0,.43-3.31,16.39-10.07,47.74h-44.58l10.35-48.6h-78.66l-10.35,48.6h-44.43l24.88-117.48h137.9c5.61,0,11.07.72,16.25,2.3,7.33,2.16,11.07,5.46,11.07,9.63,0,2.88-1.01,8.05-2.88,15.82-1.15,4.31-2.3,9.78-3.74,16.54-1.01,4.03-5.18,7.48-12.65,10.07-5.9,2.3-11.65,3.31-17.54,3.45Zm-15.67-11.22l5.32-24.16h-77.94l-5.18,24.16h77.79Z"/>
      <path class="cls-1" d="m445.06,74.92c-11.65.86-19.7-6.46-21-18.95-1.01-9.76-6.9-15.79-15.53-16.07-8.77-.29-15.53,5.88-16.97,15.5-.29,2.44-.29,4.88-.29,7.32v163.76c0,17.37-4.02,33.16-17.83,45.64-15.96,14.35-34.22,18.52-53.78,11.48-13.5-4.81-23.69-13.1-29.99-24.57-3.1-5.65-5.25-12.06-6.39-19.21-.37-3.14-.92-6.28-.92-9.42v-29.27h.2V58.85c0-11.05-5.61-18.37-14.52-18.95-9.06-.72-15.82,4.88-17.54,14.63-.57,3.73-.72,7.47-.72,11.34v162.47c0,25.98-15.39,48.65-37.96,55.4-12.12,3.57-23.24,3.08-32.87-.19-20.19-6.84-33.86-25.88-36.58-45.31h0c-.33-2.23-.49-4.48-.49-6.73v-27.69c-.09-33.34-.11-66.76-.23-100.07v-47.94c0-7.32-3.45-12.91-9.49-16.36-4.89-2.87-10.5-2.58-15.24.72-6.18,4.3-9.06,10.48-9.06,18.23.15,24.11,0,48.37,0,72.48,0,32.43.15,64.73,0,97.17-.14,27.84-16.39,50.09-40.98,56.41C32.22,293.37-3.59,262.22.29,226.63c1-9.47,8.34-15.79,18.12-15.93,10.36,0,17.69,6.03,18.55,16.08.57,6.03,1.29,11.77,5.9,16.36,4.46,4.45,9.78,6.46,15.67,4.45,5.9-2.01,10.07-6.46,11.21-12.92.57-2.87.44-5.74.44-8.61V56.98c0-23.39,14.38-45.07,35.37-53.39,33.36-13.2,72.47,11.63,73.05,48.08,1,48.6.59,97.08.37,145.56h0v12.64h0c.02,4.29.05,9.29.06,9.29.14,4.02.14,7.89.43,11.91.57,10.05,8.34,17.8,17.26,17.51,8.92-.28,15.24-7.75,15.24-18.37,0-57.41.14-114.82,0-172.23,0-27.7,24.16-53.97,50.04-55.69C295.94,0,320.1,28.13,320.25,53.68c.43,56.84.14,113.53.14,170.36v6.61c0,.15.01.3.03.45.68,5.06,2.02,9.87,6.44,13.75,8.49,7.32,20.57,4.74,24.73-5.6,2.16-5.17,2.44-10.76,2.44-16.36,0-54.97-.14-110.08,0-165.05,0-26.84,18.7-49.95,44.29-55.11,30.78-6.17,62.84,19.09,63.85,50.52.44,11.77-6.76,20.96-17.11,21.67Z"/>
      <path class="cls-1" d="m655.01,77.97h-123.23l-5.18,34.08h78.37l-4.75,31.2h-78.23l-10.5,68.16h-44.43l24.88-164.65h167.67l-4.6,31.2Z"/>
      <path class="cls-1" d="m782.7,187.98h-112.45c-5.03,0-10.07-1.01-15.24-2.88-6.61-2.3-9.92-5.61-9.92-9.63,0-.29,6.47-30.63,19.56-91.17,1.01-4.6,5.61-8.34,13.8-10.93,6.33-2.01,12.51-3.16,18.84-3.16h108.28c5.46,0,10.93.86,16.25,2.59,7.33,2.3,11.07,5.46,11.07,9.35,0,.58-6.47,31.2-19.27,91.74-1.01,4.31-5.18,7.91-12.94,10.5-6.47,2.44-12.37,3.59-17.97,3.59Zm-12.51-22.29l15.53-73.05h-77.94l-15.67,73.05h78.08Z"/>
      <path class="cls-1" d="m958.28,187.98h-112.45c-5.61,0-10.78-.86-15.24-2.59-6.33-2.3-9.35-5.75-9.35-10.35,0-.58.14-1.29.29-2.16l20.42-96.78c.72-3.31,3.59-5.75,7.05-5.75h30.34c4.6,0,8.05,4.31,7.05,8.77l-16.54,77.79c-1.01,4.46,2.44,8.77,7.05,8.77h63.27c3.45,0,6.33-2.44,7.05-5.75l17.83-83.83c.72-3.31,3.74-5.75,7.05-5.75h29.77c4.6,0,8.05,4.17,7.05,8.77l-19.99,95.05c-1.01,4.31-5.18,7.91-12.94,10.5-6.04,2.16-11.94,3.31-17.69,3.31Z"/>
      <path class="cls-1" d="m1147.37,128.01c16.25.72,24.45,4.75,24.45,11.94,0,.43-3.31,16.39-10.07,47.74h-44.58l10.35-48.6h-78.66l-10.35,48.6h-44.43l24.88-117.48h137.9c5.61,0,11.07.72,16.25,2.3,7.33,2.16,11.07,5.46,11.07,9.63,0,2.88-1.01,8.05-2.88,15.82-1.15,4.31-2.3,9.78-3.74,16.54-1.01,4.03-5.18,7.48-12.65,10.07-5.9,2.3-11.79,3.31-17.54,3.45Zm-15.82-11.22l5.32-24.16h-77.94l-5.18,24.16h77.79Z"/>
      <path class="cls-1" d="m1214.09,187.69h-44.43l24.88-117.48h44.72l-25.16,117.48Z"/>
      <path class="cls-1" d="m1387.8,187.69h-158.03c-3.02,0-5.32-2.73-4.6-5.75l22.86-107.99c.43-2.16,2.44-3.74,4.6-3.74h155.01c4.6,0,7.91,4.17,7.05,8.63l-2.01,9.92c-.43,2.16-2.44,3.74-4.6,3.74h-115.47c-2.16,0-4.17,1.58-4.6,3.74l-3.31,14.95c-.72,3.02,1.58,5.75,4.6,5.75h66.72c3.02,0,5.32,2.73,4.6,5.75l-2.73,12.8c-.43,2.16-2.44,3.74-4.6,3.74h-70.75c-2.3,0-4.17,1.58-4.6,3.74l-3.31,16.54c-.58,2.88,1.58,5.61,4.6,5.61h111.3c3.02,0,5.32,2.73,4.6,5.75l-2.73,12.8c-.43,2.44-2.44,4.03-4.6,4.03Z"/>
    </g>
  </g>
</svg>